<svg height="80" viewBox="0 0 161 80" width="161" xmlns="http://www.w3.org/2000/svg" xmlns:xlink="http://www.w3.org/1999/xlink"><mask id="a" fill="#fff"><path d="m0 0h22.5402736v23.1847998h-22.5402736z" fill="#fff" fill-rule="evenodd"/></mask><mask id="b" fill="#fff"><path d="m0 0h9.10854893v9.10822029h-9.10854893z" fill="#fff" fill-rule="evenodd"/></mask><mask id="c" fill="#fff"><path d="m0 0h9.10854893v9.10822029h-9.10854893z" fill="#fff" fill-rule="evenodd"/></mask><mask id="d" fill="#fff"><path d="m0 0h9.10854893v9.10822029h-9.10854893z" fill="#fff" fill-rule="evenodd"/></mask><g fill="none" fill-rule="evenodd" transform="translate(.825779 .026429)"><g fill="#151943"><path d="m9.43033345 57.1254826c-2.11971932-.6553055-3.31990769-1.0864794-3.31990769-2.2958697 0-.9353056.74535247-1.5866674 1.81211354-1.5866674 1.13906158 0 1.81671448.6046951 2.01652678 1.7983107.06704232.3996246.49953072.7210332.90572812.7210332l3.6564337.0006573c.1715494 0 .3345541-.0696714.4548359-.1925823.1183099-.1222535.1827231-.2885447.1774648-.4594368-.1183099-3.8845089-3.0714568-6.7042285-7.02300799-6.7042285-3.52760731 0-7.17483909 2.5285458-7.17483909 6.7600971 0 2.3622546.7617844 5.0183122 6.4156838 6.8061065 2.72901538.8807516 3.09643338 1.787137 3.09643338 2.557466 0 1.3513622-.9320192 2.225541-2.37540017 2.225541-1.68197263 0-2.64882755-.9793432-2.87493095-2.9123958-.05652584-.4850706-.45089223-.8866671-.93924927-.8866671h-3.3192504c-.51070447 0-.95370938.4206575-.938592.931362.14985923 5.0590634 4.09615218 7.70329 7.99643573 7.70329 4.48986126 0 7.62573136-2.9971845 7.62573136-7.2878908 0-3.4993444-2.0474189-5.9023502-6.19220955-7.1781254"/><path d="m41.7427432 48.4068963c-3.0826306 0-5.2338992.9247891-6.8422568 2.9774662-1.3382166-1.8140854-3.8220675-2.9774662-6.5063881-2.9774662-2.2715503 0-3.8923962.5646012-5.4199086 1.9553999v-.758498c0-.3490142-.2832866-.6323007-.6323008-.6323007h-3.3074194c-.5159627 0-.9339911.4180283-.9339911.9346483v20.2244228c0 .5159626.4180284.9346483.9339911.9346483h3.3047903c.5159627 0 .933991-.4186857.933991-.9346483v-11.3906158c0-3.7510816 1.4374655-5.4974674 4.5200961-5.4974674 2.7618792 0 4.1046968 1.6629116 4.1046968 5.0827254v11.8053578c0 .5159626.4186856.9346483.9346483.9346483h3.3061048c.5159627 0 .9346484-.4186857.9346484-.9346483v-11.4280806c0-3.8779361 1.2540851-5.4600026 4.3301429-5.4600026 2.8492971 0 4.2946499 1.8620666 4.2946499 5.5336177v11.3544655c0 .5159626.4180284.9346483.9339911.9346483h3.3061048c.5159627 0 .9346484-.4186857.9346484-.9346483v-12.3305223c0-5.7932422-3.4980299-9.39315-9.1302391-9.39315"/><path d="m121.800171 60.0552962c0 3.7576543-2.811175 6.7009421-6.399252 6.7009421-3.609767 0-6.436059-2.9761516-6.436059-6.776529 0-3.65249 2.878874-6.7370924 6.2862-6.7370924 3.917373 0 6.549111 3.5223491 6.549111 6.8126793m-6.248078-11.6482685c-2.697466 0-5.076153.9629113-6.850144 2.7434755v-1.5472308c0-.3490142-.283287-.6316435-.632301-.6316435h-3.269297c-.515963 0-.934649.4180284-.934649.9339911v28.1603889c0 .5159627.418686.9339911.934649.9339911h3.304133c.51662 0 .934648-.4180284.934648-.9339911v-8.9330558c1.605071 1.5616908 4.019251 2.4588744 6.774557 2.4588744 6.257937 0 11.161226-4.9690165 11.161226-11.3110852 0-6.7699563-4.911176-11.8737146-11.422822-11.8737146"/><path d="m133.898411 40.8277002h-3.304133c-.51662 0-.934648.4180283-.934648.9346483v28.3680886c0 .5139909.420658.9346483.934648.9346483h3.299532c.518592 0 .93925-.4206574.93925-.938592v-28.3641449c0-.5139909-.420658-.9346483-.934649-.9346483"/><path d="m64.7876086 53.0944008c3.0491094 0 5.6637586 2.1769025 6.2027259 5.0544625h-12.3285504c.5744603-3.1384991 3.5282646-5.0544625 6.1258245-5.0544625zm5.9582188 11.7639493c-.2964321-.1741785-.6316435-.0696714-.9070427.1360564-1.4808458 1.1042259-3.0228183 1.9093906-4.9059178 1.9093906-2.8098605 0-4.9486409-1.9218789-6.1567166-4.6357769h16.6639516c.2668546 0 .4962444-.1958686.5369956-.4607514.1189672-.7617844.1189672-1.3901415.1189672-2.0539916 0-6.361787-5.0169977-11.3465781-11.4208505-11.3465781-6.2342753 0-11.1198175 5.1839461-11.1198175 11.8027286 0 6.0627259 5.2483593 11.3820711 11.2322119 11.3820711 3.4323021 0 6.5477965-1.5662918 8.6589712-4.1605653.2832866-.3490143.1689203-.8807516-.2188733-1.1094841z"/><path d="m89.974475 53.0944008c3.0491095 0 5.6637586 2.1769025 6.202726 5.0544625h-12.3285505c.5744604-3.1384991 3.5282646-5.0544625 6.1258245-5.0544625zm5.9582188 11.7639493c-.296432-.1741785-.6316435-.0696714-.9070427.1360564-1.4808457 1.1042259-3.0228183 1.9093906-4.9059178 1.9093906-2.8098605 0-4.9486408-1.9218789-6.1567165-4.6357769h16.6639512c.266855 0 .496245-.1958686.536996-.4607514.118967-.7617844.118967-1.3901415.118967-2.0539916 0-6.361787-5.0169976-11.3465781-11.4208504-11.3465781-6.2342753 0-11.1198175 5.1839461-11.1198175 11.8027286 0 6.0627259 5.2483593 11.3820711 11.2322119 11.3820711 3.4323021 0 6.5477966-1.5662918 8.6589713-4.1605653.2832865-.3490143.1689202-.8807516-.2188734-1.1094841z"/><path d="m11.2322119 4.68770176c3.0491094 0 5.6637586 2.17690244 6.202726 5.0544625h-12.3285505c.57446037-3.13849915 3.52826459-5.0544625 6.1258245-5.0544625zm5.9582188 11.76394924c-.2964321-.1741785-.6316435-.0696714-.9070427.1360564-1.4808458 1.1042259-3.0228183 1.9093906-4.9059178 1.9093906-2.80986049 0-4.94864085-1.9218789-6.15671654-4.6357769h16.66395154c.2668546 0 .4962444-.1958686.5369956-.4607513.1189672-.7617844.1189672-1.3901416.1189672-2.0539916 0-6.3617871-5.0169977-11.3465782-11.4208505-11.3465782-6.23427527 0-11.1198175 5.18394613-11.1198175 11.8027286 0 6.0627259 5.2483593 11.3820712 11.2322119 11.3820712 3.4323021 0 6.5477966-1.5662919 8.6589713-4.1605654.2832865-.3490143.1689202-.8807516-.2188734-1.1094841z" mask="url(#a)" transform="translate(137.611174 48.406699)"/></g><path d="m87.8452909 21.4624703c0-1.1390616.1827231-2.2340856.5139909-3.2627246.5968078-2.1013155 1.7746487-3.8969971 3.3199077-5.2417865-.9471366-1.0937094-2.190048-1.8476065-3.735307-2.0776536-2.7888276-.4153992-16.2347495-.4153992-19.0229198 0-1.8646958.2780283-3.3146495 1.2889208-4.2979363 2.7809403.6257279 1.0273245.9826295 2.2551185.9826295 3.6340863v8.0365296c0 2.2439447-.9254464 4.1000959-2.4707054 5.3055424v.1340846c0 .4817843.3904227.872207.872207.872207h28.8505302c.4200002 0 .7552116-.3036621.8373713-.7000003-3.4664806-1.7516441-5.8497681-5.3311763-5.8497681-9.4812252" fill="#5ebe90"/><path d="m64.6226977 13.6612459c-.974085-1.5971838-2.6139918-2.6981233-4.6817862-3.0464803-.4324885-.0808451-.8827235-.1235681-1.3480758-.1235681h-.1058217c-.0578404 0-.1150235.0138028-.1735212.0151174-.0578404-.0013146-.1150235-.0151174-.1728639-.0151174-.019061 0-.035493.0046009-.0538967.0046009-.0177465 0-.0348357-.0046009-.0525822-.0046009-.4653524 0-.91493.042723-1.3474185.1235681-3.3981237.5724885-5.6650731 3.1569029-5.6650731 6.6805666v8.0365296c0 3.5236637 2.2669494 6.108078 5.6650731 6.6805666.4324885.0801878.8820661.1229108 1.3474185.1229108h.1064789c.0578404 0 .1150235-.0131455.1728639-.0144601.0584977.0013146.1156808.0144601.1735212.0144601.0184038 0 .035493-.0046009.0538968-.0046009.0177465 0 .0348357.0046009.0519249.0046009.4653523 0 .9155873-.042723 1.3480758-.1229108 1.2337095-.2083569 2.3129588-.6881694 3.1943677-1.3750242v-11.3768129c0-2.1795315.5153054-4.1244151 1.4874185-5.5993454" fill="#675fff"/><path d="m65.6057874 25.3315989v-8.0365296c0-1.3789678-.3569016-2.6067618-.9832869-3.6340863-.9721131 1.4749303-1.4874185 3.4198139-1.4874185 5.5993454v11.3768129c1.5452589-1.2054466 2.4707054-3.0615977 2.4707054-5.3055424" fill="#4933fe"/><path d="m108.237845 17.2040363c-1.520939-3.9798141-5.346293-6.7430079-9.9492064-6.7430079-2.5410341 0-4.8237582.943193-6.6095806 2.4969965 1.3244138 1.5301416 2.0507052 3.7451661 2.0507052 6.3026321v11.5108975c0 .0611268-.0230047.1143663-.0348357.1722067 1.0122071.5113617 2.1124893.8748361 3.2784992 1.0411272.4673242.070986.9399066.1202818 1.4203763.1202818.0138028 0 .0269483-.0032864.0407512-.0032864.0184037.0006573.0354929.0032864.0532394.0032864 5.8773734 0 10.6419774-4.7652605 10.6419774-10.6426342 0-1.5150242-.321409-2.9538042-.891926-4.2584997" fill="#f7941d"/><path d="m93.729566 19.260657c0-2.557466-.7262914-4.7724905-2.0507052-6.3026321-1.5452589 1.3441321-2.7224426 3.140471-3.3192504 5.2411293-.3312678 1.0292963-.5146481 2.1243203-.5146481 3.2633818 0 4.1500489 2.3832875 7.7295812 5.849768 9.4812252.011831-.0578404.0348357-.1110799.0348357-.1722067z" fill="#5b6e10"/><path d="m4.55427447 9.10822029c2.51540025 0 4.55427446-2.03887421 4.55427446-4.55427446 0-2.51474298-2.03887421-4.55427447-4.55427446-4.55427447-2.51540026 0-4.55427447 2.03953149-4.55427447 4.55427447 0 2.51540025 2.03887421 4.55427446 4.55427447 4.55427446" fill="#675fff" mask="url(#b)" transform="translate(53.759416)"/><path d="m4.55427447 9.10822029c2.51540025 0 4.55427446-2.03887421 4.55427446-4.55427446 0-2.51474298-2.03887421-4.55427447-4.55427446-4.55427447-2.51474298 0-4.55427447 2.03953149-4.55427447 4.55427447 0 2.51540025 2.03953149 4.55427446 4.55427447 4.55427446" fill="#5ebe90" mask="url(#c)" transform="translate(73.877885)"/><path d="m4.55427447 9.10822029c2.51540025 0 4.55427446-2.03887421 4.55427446-4.55427446 0-2.51474298-2.03887421-4.55427447-4.55427446-4.55427447-2.51474298 0-4.55427447 2.03953149-4.55427447 4.55427447 0 2.51540025 2.03953149 4.55427446 4.55427447 4.55427446" fill="#f7941d" mask="url(#d)" transform="translate(93.933256)"/></g></svg>