<?xml version="1.0" encoding="UTF-8"?>
<svg width="250px" height="42px" viewBox="0 0 250 42" version="1.1" xmlns="http://www.w3.org/2000/svg" xmlns:xlink="http://www.w3.org/1999/xlink">
    <title>Group 3</title>
    <g id="Library---Web" stroke="none" stroke-width="1" fill="none" fill-rule="evenodd">
        <g id="Header/Top-Logged" transform="translate(-440.000000, -19.000000)">
            <g id="Group-3" transform="translate(440.000000, 19.554664)">
                <path d="M88.188408,17.5104 C85.922568,16.80984 84.640248,16.34904 84.640248,15.05592 C84.640248,14.05656 85.436568,13.3596 86.577048,13.3596 C87.793848,13.3596 88.518168,14.00688 88.732008,15.28272 C88.802568,15.7104 89.266248,16.05384 89.699688,16.05384 L93.608568,16.05384 C93.791448,16.05384 93.964968,15.97968 94.093848,15.84792 C94.221288,15.7176 94.288968,15.54048 94.283928,15.35688 C94.157208,11.20536 91.001448,8.19216 86.777208,8.19216 C83.007288,8.19216 79.109208,10.8936 79.109208,15.41736 C79.109208,17.94168 79.922808,20.78064 85.966488,22.6908 C88.882488,23.63256 89.274888,24.60168 89.274888,25.42464 C89.274888,26.86968 88.279128,27.80352 86.736888,27.80352 C84.939048,27.80352 83.905848,26.75664 83.663928,24.69096 C83.604168,24.17184 83.181528,23.74344 82.660248,23.74344 L79.112808,23.74344 C78.566328,23.74344 78.092568,24.19272 78.109848,24.73848 C78.268968,30.14568 82.487448,32.9724 86.656248,32.9724 C91.454328,32.9724 94.805928,29.76912 94.805928,25.182 C94.805928,21.44232 92.617128,18.87408 88.188408,17.5104" id="Fill-235" fill="#F2F2F2"></path>
                <path d="M122.72436,8.191872 C119.42964,8.191872 117.12924,9.180432 115.41204,11.374272 C113.98068,9.436032 111.32604,8.191872 108.45684,8.191872 C106.02972,8.191872 104.29596,8.795232 102.66444,10.282032 L102.66444,9.470592 C102.66444,9.097632 102.36132,8.795232 101.98836,8.795232 L98.45388,8.795232 C97.90164,8.795232 97.45524,9.242352 97.45524,9.793872 L97.45524,31.410432 C97.45524,31.961952 97.90164,32.409072 98.45388,32.409072 L101.98548,32.409072 C102.53628,32.409072 102.98412,31.961952 102.98412,31.410432 L102.98412,19.236672 C102.98412,15.226272 104.51988,13.360032 107.8146,13.360032 C110.76732,13.360032 112.20228,15.136992 112.20228,18.792432 L112.20228,31.410432 C112.20228,31.961952 112.65012,32.409072 113.20092,32.409072 L116.73468,32.409072 C117.2862,32.409072 117.73404,31.961952 117.73404,31.410432 L117.73404,19.195632 C117.73404,15.050592 119.07396,13.360032 122.36148,13.360032 C125.4078,13.360032 126.95148,15.350112 126.95148,19.274832 L126.95148,31.410432 C126.95148,31.961952 127.39932,32.409072 127.95012,32.409072 L131.48388,32.409072 C132.0354,32.409072 132.48252,31.961952 132.48252,31.410432 L132.48252,18.231552 C132.48252,12.039552 128.74428,8.191872 122.72436,8.191872" id="Fill-237" fill="#F2F2F2"></path>
                <path d="M201.613176,8.191872 C198.729576,8.191872 196.187976,9.220752 194.291496,11.124432 L194.291496,9.470592 C194.291496,9.097632 193.989096,8.795232 193.616136,8.795232 L190.121256,8.795232 C189.570456,8.795232 189.122616,9.242352 189.122616,9.793872 L189.122616,39.891312 C189.122616,40.443552 189.570456,40.890672 190.121256,40.890672 L193.652856,40.890672 C194.205096,40.890672 194.651496,40.443552 194.651496,39.891312 L194.651496,30.344112 C196.367256,32.013072 198.948456,32.972112 201.892536,32.972112 C208.581336,32.972112 213.822216,27.661392 213.822216,20.882592 C213.822216,13.647312 208.572696,8.191872 201.613176,8.191872 M208.291176,20.642112 C208.291176,24.658272 205.286616,27.803232 201.451176,27.803232 C197.594136,27.803232 194.572296,24.622992 194.572296,20.560752 C194.572296,16.657632 197.649576,13.360032 201.291336,13.360032 C205.478136,13.360032 208.291176,17.125632 208.291176,20.642112" id="Fill-239" fill="#F2F2F2"></path>
                <path d="M221.22252,0.09072 L217.6902,0.09072 C217.13868,0.09072 216.69156,0.53856 216.69156,1.08936 L216.69156,31.41 C216.69156,31.95936 217.14084,32.40936 217.6902,32.40936 L221.21748,32.40936 C221.77116,32.40936 222.22044,31.95936 222.22044,31.4064 L222.22044,1.08936 C222.22044,0.54072 221.77116,0.09072 221.22252,0.09072" id="Fill-241" fill="#F2F2F2"></path>
                <path d="M153.723384,25.775424 C153.406584,25.588944 153.048024,25.700544 152.754264,25.920864 C151.170984,27.100944 149.522904,27.962064 147.509784,27.962064 C144.507384,27.962064 142.221384,25.907184 140.930424,23.006304 L158.740344,23.006304 C159.025464,23.006304 159.271704,22.797504 159.314904,22.514544 C159.441624,21.700224 159.441624,21.029184 159.441624,20.318544 C159.441624,13.518864 154.079784,8.191584 147.234744,8.191584 C140.571864,8.191584 135.350424,13.732704 135.350424,20.806704 C135.350424,27.286704 140.959224,32.972544 147.354984,32.972544 C151.023384,32.972544 154.354104,31.297824 156.609864,28.525104 C156.912984,28.152144 156.790584,27.583344 156.375864,27.339264 L153.723384,25.775424 Z M147.354984,13.202064 C150.615144,13.202064 153.408024,15.528384 153.984744,18.604224 L140.808024,18.604224 C141.422184,15.249024 144.578664,13.202064 147.354984,13.202064 L147.354984,13.202064 Z" id="Fill-243" fill="#F2F2F2"></path>
                <path d="M180.643176,25.775424 C180.327096,25.588944 179.967816,25.700544 179.674056,25.920864 C178.090776,27.100944 176.443416,27.962064 174.430296,27.962064 C171.427176,27.962064 169.141176,25.907184 167.850216,23.006304 L185.660856,23.006304 C185.946696,23.006304 186.191496,22.797504 186.233976,22.514544 C186.362136,21.700224 186.362136,21.029184 186.362136,20.318544 C186.362136,13.518864 181.000296,8.191584 174.155256,8.191584 C167.491656,8.191584 162.270936,13.732704 162.270936,20.806704 C162.270936,27.286704 167.879016,32.972544 174.275496,32.972544 C177.943176,32.972544 181.273896,31.297824 183.529656,28.525104 C183.832776,28.152144 183.710376,27.583344 183.295656,27.339264 L180.643176,25.775424 Z M174.275496,13.202064 C177.534216,13.202064 180.328536,15.528384 180.904536,18.604224 L167.727816,18.604224 C168.341976,15.249024 171.499896,13.202064 174.275496,13.202064 L174.275496,13.202064 Z" id="Fill-245" fill="#F2F2F2"></path>
                <path d="M243.563544,25.775424 C243.247464,25.588944 242.888184,25.700544 242.593704,25.920864 C241.011144,27.100944 239.363784,27.962064 237.350664,27.962064 C234.347544,27.962064 232.062264,25.907184 230.769864,23.006304 L248.580504,23.006304 C248.866344,23.006304 249.111864,22.797504 249.155064,22.514544 C249.281784,21.700224 249.281784,21.029184 249.281784,20.318544 C249.281784,13.518864 243.919944,8.191584 237.074904,8.191584 C230.411304,8.191584 225.190584,13.732704 225.190584,20.806704 C225.190584,27.286704 230.800104,32.972544 237.195144,32.972544 C240.864264,32.972544 244.194264,31.297824 246.450024,28.525104 C246.753864,28.152144 246.630744,27.583344 246.216744,27.339264 L243.563544,25.775424 Z M237.195144,13.202064 C240.453864,13.202064 243.248904,15.528384 243.824904,18.604224 L230.647464,18.604224 C231.261624,15.249024 234.419544,13.202064 237.195144,13.202064 L237.195144,13.202064 Z" id="Fill-247" fill="#F2F2F2"></path>
                <path d="M43.0722,25.1046 C43.0722,23.7726 43.28676,22.491 43.67412,21.28788 C44.3718,18.83052 45.74988,16.72956 47.55708,15.15708 C46.449,13.87764 44.99532,12.99636 43.18812,12.72636 C39.9258,12.24036 24.19812,12.24036 20.93724,12.72636 C18.75564,13.0518 17.05932,14.23404 15.90876,15.97932 C16.64244,17.181 17.05932,18.6174 17.05932,20.2302 L17.05932,29.6298 C17.05932,32.2542 15.97644,34.42644 14.16924,35.8362 L14.16924,35.99388 C14.16924,36.55692 14.62572,37.01412 15.18948,37.01412 L48.93516,37.01412 C49.42764,37.01412 49.8186,36.65844 49.91508,36.19476 C45.86004,34.14636 43.0722,29.95884 43.0722,25.1046" id="Fill-249" fill="#5EBF8F"></path>
                <path d="M15.90912,15.979536 C14.76936,14.111136 12.852,12.823776 10.4328,12.415536 C9.92664,12.321936 9.40104,12.272256 8.856,12.272256 L8.73288,12.272256 C8.66448,12.272256 8.59752,12.287376 8.52984,12.288816 C8.46144,12.287376 8.39448,12.272256 8.32752,12.272256 C8.30448,12.272256 8.28576,12.277296 8.26416,12.277296 C8.244,12.277296 8.22312,12.272256 8.20296,12.272256 C7.65864,12.272256 7.13232,12.321936 6.62688,12.415536 C2.65176,13.085856 0,16.108416 0,20.230416 L0,29.630016 C0,33.752016 2.65176,36.775296 6.62688,37.444176 C7.13232,37.539216 7.65864,37.588896 8.20296,37.588896 L8.32752,37.588896 C8.39448,37.588896 8.46144,37.573056 8.52984,37.571616 C8.59752,37.573056 8.66448,37.588896 8.73288,37.588896 C8.75376,37.588896 8.7732,37.583136 8.79552,37.583136 C8.8164,37.583136 8.83656,37.588896 8.856,37.588896 C9.40104,37.588896 9.92664,37.539216 10.4328,37.444176 C11.87568,37.200816 13.13856,36.639936 14.1696,35.835696 L14.1696,22.528656 C14.1696,19.979856 14.77296,17.704656 15.90912,15.979536" id="Fill-251" fill="#665EFF"></path>
                <path d="M17.059392,29.630088 L17.059392,20.230488 C17.059392,18.616968 16.642512,17.181288 15.908832,15.979608 C14.772672,17.704728 14.169312,19.979928 14.169312,22.528728 L14.169312,35.835768 C15.976512,34.426728 17.059392,32.254488 17.059392,29.630088" id="Fill-253" fill="#4A33FF"></path>
                <path d="M66.9258,20.123424 C65.14668,15.467904 60.67188,12.235824 55.28844,12.235824 C52.31628,12.235824 49.6458,13.339584 47.55708,15.156864 C49.1058,16.946064 49.95612,19.538064 49.95612,22.528944 L49.95612,35.993664 C49.95612,36.064224 49.92876,36.127584 49.91508,36.194544 C51.09876,36.792864 52.38612,37.217664 53.7498,37.412784 C54.297,37.495584 54.84924,37.552464 55.41084,37.552464 C55.42668,37.552464 55.44324,37.549584 55.45908,37.549584 C55.48068,37.549584 55.50012,37.552464 55.521,37.552464 C62.39628,37.552464 67.96908,31.979664 67.96908,25.104384 C67.96908,23.331744 67.59324,21.649824 66.9258,20.123424" id="Fill-255" fill="#F7941C"></path>
                <path d="M49.955904,22.528944 C49.955904,19.538064 49.106304,16.946064 47.556864,15.156864 C45.749664,16.729344 44.372304,18.830304 43.673904,21.288384 C43.287264,22.491504 43.071984,23.772384 43.071984,25.104384 C43.071984,29.958624 45.859824,34.146144 49.914864,36.194544 C49.928544,36.127584 49.955904,36.064224 49.955904,35.993664 L49.955904,22.528944 Z" id="Fill-257" fill="#5C6E0F"></path>
                <path d="M8.529696,10.65384 C11.471616,10.65384 13.856256,8.26848 13.856256,5.32656 C13.856256,2.38536 11.471616,0 8.529696,0 C5.587776,0 3.202416,2.38536 3.202416,5.32656 C3.202416,8.26848 5.587776,10.65384 8.529696,10.65384" id="Fill-259" fill="#665EFF"></path>
                <path d="M32.062248,10.65384 C35.004168,10.65384 37.389528,8.26848 37.389528,5.32656 C37.389528,2.38536 35.004168,0 32.062248,0 C29.120328,0 26.734968,2.38536 26.734968,5.32656 C26.734968,8.26848 29.120328,10.65384 32.062248,10.65384" id="Fill-261" fill="#5EBF8F"></path>
                <path d="M55.520712,10.65384 C58.462632,10.65384 60.847992,8.26848 60.847992,5.32656 C60.847992,2.38536 58.462632,0 55.520712,0 C52.579512,0 50.194152,2.38536 50.194152,5.32656 C50.194152,8.26848 52.579512,10.65384 55.520712,10.65384" id="Fill-263" fill="#F7941C"></path>
            </g>
        </g>
    </g>
</svg>