<svg height="118" viewBox="0 0 138 118" width="138" xmlns="http://www.w3.org/2000/svg"><g fill="none" fill-rule="evenodd" transform="translate(.226487 .052857)"><circle cx="102.001853" cy="76.013194" fill="#e2f3eb" r="35.72866"/><path d="m52.439963.03057189c10.0226073.41795395 9.9662592 4.90772309 18.4951982 8.42866849 8.528939 3.52094542 10.9440721.72377217 17.057878 7.04189082 6.1138059 6.3181186 3.4618924 8.8301389 6.9771177 17.7963124s7.1083881 8.5768609 7.0304511 17.932347c-.077938 9.3554862-3.9997871 10.2021288-7.3357144 18.7109724-3.3359272 8.5088435-.5239447 10.851248-6.6718544 17.0176871-6.1479098 6.1664391-7.7471492 3.1982043-17.4955767 7.222583-9.7484275 4.0243788-10.7139251 7.7997529-19.496855 8.0487579-8.7829298.249005-8.5600418-3.3997524-17.6162476-6.9965635-9.0562059-3.5968112-11.8624183-1.1125232-18.1124118-7.1936224-6.24999351-6.0810992-3.2478081-7.8284689-7.25565228-17.4889174-4.00784414-9.6604486-8.0393296-9.3811026-8.01629582-19.3208971.02424886-9.9397944 4.52841662-11.1145904 8.10959378-19.9054463 3.58117712-8.7908559.78149727-11.4132952 7.16235432-17.5817119 6.380857-6.16841663 9.3009129-3.5176736 18.1101617-6.84939634 8.8092489-3.33172271 9.0352459-7.28061813 19.0578532-6.86266417z" fill="#edecfe"/><circle cx="75.773194" cy="64.676933" r="35.72866" stroke="#f8961f" stroke-width="3.4"/><path d="m77.212549 13.4777145c10.0226074.417954 9.9662592 4.9077231 18.4951982 8.4286685 8.5289388 3.5209454 10.9440718.7237722 17.0578778 7.0418908 6.113806 6.3181187 3.461893 8.830139 6.977118 17.7963125s7.108388 8.5768608 7.030451 17.932347c-.077938 9.3554861-3.999787 10.2021288-7.335714 18.7109723-3.335928 8.5088436-.523945 10.851248-6.671855 17.0176874-6.14791 6.166439-7.747149 3.198204-17.4955765 7.222583s-10.7139251 7.799752-19.4968549 8.048757c-8.7829299.249005-8.5600418-3.399752-17.6162477-6.996563s-11.8624183-1.112523-18.1124118-7.193622c-6.2499935-6.0810994-3.2478081-7.8284692-7.2556523-17.4889177-4.0078441-9.6604485-8.0393295-9.3811025-8.0162958-19.320897.0242489-9.9397945 4.5284167-11.1145904 8.1095938-19.9054464 3.5811772-8.7908559.7814973-11.4132952 7.1623543-17.5817118 6.3808571-6.1684167 9.3009129-3.5176737 18.1101618-6.8493964 8.8092488-3.3317227 9.0352458-7.2806181 19.0578531-6.8626642z" stroke="#f8961f" stroke-width="3.4"/><path d="m8.94461322 17.5736359-6.00054285-6.0005428c-.67441259-.6744126-1.76384833-.6744126-2.43826092 0-.6744126.6744126-.6744126 1.7638483 0 2.4382609l7.22831962 7.2283196c.6744126.6744126 1.76384833.6744126 2.43826093 0l18.2956033-18.29560323c.6744126-.67441259.6744126-1.76384833 0-2.43826092-.6744126-.6744126-1.7638484-.6744126-2.438261 0z" fill="#5ebf8f" fill-rule="nonzero" stroke="#5ebf8f" stroke-width="1.7" transform="translate(61.286292 53.804192)"/></g></svg>