<?xml version="1.0" encoding="UTF-8"?>
<svg width="293px" height="114px" viewBox="0 0 293 114" version="1.1"
    xmlns="http://www.w3.org/2000/svg" xmlns:xlink="http://www.w3.org/1999/xlink">
    <title>Smeeple People Line Art</title>
    <defs>
        <path
            d="M8,0 L312,0 C316.418278,-8.11624501e-16 320,3.581722 320,8 L320,113 L320,113 L0,113 L0,8 C-5.41083001e-16,3.581722 3.581722,8.11624501e-16 8,0 Z"
            id="path-1"></path>
    </defs>
    <g id="SME---Home-(Calls,-Availability)" stroke="none" stroke-width="1" fill="none"
        fill-rule="evenodd">
        <g
            id="Group-Copy-3-+-Group-Copy-5-+-Group-2-Copy-9-+-Group-2-Copy-20-+-Group-4-Copy-5-+-Group-4-Copy-8-+-Path-6-Mask"
            transform="translate(-19.192047, 0.340122)">
            <mask id="mask-2" fill="white">
                <use xlink:href="#path-1"></use>
            </mask>
            <g id="Mask"></g>
            <g id="Group-Copy-3" mask="url(#mask-2)" stroke="#FFFFFF" stroke-opacity="0.85"
                stroke-width="1.5">
                <g transform="translate(79.779085, 92.514059)">
                    <circle id="Oval" cx="10.125" cy="20.5871168" r="10.125"></circle>
                    <path
                        d="M10.125,8.92814902 C12.5906108,8.92814902 14.5890745,6.92939604 14.5890745,4.46407451 C14.5890745,1.99875299 12.5906108,0 10.125,0 C7.65967848,0 5.66092549,1.99875299 5.66092549,4.46407451 C5.66092549,6.92939604 7.65967848,8.92814902 10.125,8.92814902 Z"
                        id="Stroke-15"></path>
                </g>
            </g>
            <g id="Group-Copy-5" mask="url(#mask-2)" stroke="#FFFFFF" stroke-opacity="0.85"
                stroke-width="1.5">
                <g transform="translate(216.779085, 56.015143)">
                    <circle id="Oval" cx="10.125" cy="20.5871168" r="10.125"></circle>
                    <path
                        d="M10.125,8.92814902 C12.5906108,8.92814902 14.5890745,6.92939604 14.5890745,4.46407451 C14.5890745,1.99875299 12.5906108,0 10.125,0 C7.65967848,0 5.66092549,1.99875299 5.66092549,4.46407451 C5.66092549,6.92939604 7.65967848,8.92814902 10.125,8.92814902 Z"
                        id="Stroke-15"></path>
                </g>
            </g>
            <g id="Group-2-Copy-9" mask="url(#mask-2)" stroke="#FFFFFF" stroke-opacity="0.85"
                stroke-width="1.5">
                <g transform="translate(276.413250, -15.500000)" id="Rectangle">
                    <path
                        d="M6,11.0914875 L22.0579178,11.0914875 C25.3716263,11.0914875 28.0579178,13.777779 28.0579178,17.0914875 L28.0579178,30.0314726 C28.0579178,30.4456862 27.7221314,30.7814726 27.3079178,30.7814726 L0.75,30.7814726 C0.335786438,30.7814726 2.00122657e-15,30.4456862 0,30.0314726 L0,17.0914875 C-4.05812251e-16,13.777779 2.6862915,11.0914875 6,11.0914875 Z"></path>
                </g>
            </g>
            <g id="Group-2-Copy-20" mask="url(#mask-2)" stroke="#FFFFFF" stroke-opacity="0.85"
                stroke-width="1.5">
                <g transform="translate(123.029085, 20.390736)">
                    <path
                        d="M6,11.0914875 L22.0579178,11.0914875 C25.3716263,11.0914875 28.0579178,13.777779 28.0579178,17.0914875 L28.0579178,30.0314726 C28.0579178,30.4456862 27.7221314,30.7814726 27.3079178,30.7814726 L0.75,30.7814726 C0.335786438,30.7814726 2.00122657e-15,30.4456862 0,30.0314726 L0,17.0914875 C-4.05812251e-16,13.777779 2.6862915,11.0914875 6,11.0914875 Z"
                        id="Rectangle"></path>
                    <path
                        d="M14.0288143,8.92814902 C16.494425,8.92814902 18.493178,6.92939604 18.493178,4.46407451 C18.493178,1.99875299 16.494425,0 14.0288143,0 C11.5634927,0 9.56473976,1.99875299 9.56473976,4.46407451 C9.56473976,6.92939604 11.5634927,8.92814902 14.0288143,8.92814902 Z"
                        id="Stroke-13"></path>
                </g>
            </g>
            <g id="Group-4-Copy-5" mask="url(#mask-2)" stroke="#FFFFFF" stroke-opacity="0.85"
                stroke-width="1.5">
                <g transform="translate(20.375000, 7.672571)">
                    <rect id="Rectangle" x="0" y="11.0914875" width="13.875" height="20.25" rx="6"></rect>
                    <path
                        d="M6.9375,8.92814902 C9.40282152,8.92814902 11.4015745,6.92939604 11.4015745,4.46407451 C11.4015745,1.99875299 9.40282152,0 6.9375,0 C4.47217848,0 2.47342549,1.99875299 2.47342549,4.46407451 C2.47342549,6.92939604 4.47217848,8.92814902 6.9375,8.92814902 Z"
                        id="Stroke-11"></path>
                </g>
            </g>
            <g id="Group-4-Copy-8" mask="url(#mask-2)" stroke="#FFFFFF" stroke-opacity="0.85"
                stroke-width="1.5">
                <g transform="translate(297.533668, 92.514059)">
                    <rect id="Rectangle" x="0" y="11.0914875" width="13.875" height="20.25" rx="6"></rect>
                    <path
                        d="M6.9375,8.92814902 C9.40282152,8.92814902 11.4015745,6.92939604 11.4015745,4.46407451 C11.4015745,1.99875299 9.40282152,0 6.9375,0 C4.47217848,0 2.47342549,1.99875299 2.47342549,4.46407451 C2.47342549,6.92939604 4.47217848,8.92814902 6.9375,8.92814902 Z"
                        id="Stroke-11"></path>
                </g>
            </g>
            <polyline id="Path-6" stroke="#FFFFFF" stroke-width="1.5" opacity="0.851441592"
                mask="url(#mask-2)"
                points="89.25 110.781473 27.3125 28.3890588 135.145703 41.3272164 89.9040854 110.781473 226.904085 76.60226 290.442209 5.43648006 304.471168 110.781473 226.904085 76.60226"></polyline>
        </g>
    </g>
</svg>