<svg height="138" viewBox="0 0 193 138" width="193" xmlns="http://www.w3.org/2000/svg"><g fill="none" fill-rule="evenodd" transform="translate(1.051758 1)"><path d="m180.105957 9.51417046-53.425293 47.73779294 25.554199 14.1118164z" fill="#e2f3eb"/><path d="m105.690918 23.8613281s23.315267-7.5213216 69.945801-22.56396482l-100.6264651 5.54882813c20.453776 11.34342449 30.6806641 17.01513669 30.6806641 17.01513669z" fill="#edecfe"/><g stroke="#f8961f" stroke-width="2"><path d="m79.0537109 16.7949219 111.0214841-16.7949219-41.683593 56-33.830079-18.9140625v18.9140625l-10.875-25.0488281z" stroke-linejoin="round"/><path d="m114.394043 37.2160645 59.428223-29.942627-70.135743 23.6777344"/><path d="m128.972046 45.057983-14.410523 10.942017"/><path d="m108.231934 61.5288086c-30.8998844 26.4465273-48.0281396 43.7170354-51.384766 51.8115234-5.0349397 12.141733 5.1121638 24.077899 17.727539 22.038086s10.9741211-17.683105 6.2739258-25.918945-8.0864262-15.9463598-32.1987305-16.5234378c-16.0748695-.3847187-32.2915036 4.0116029-48.6499023 13.1889648" stroke-dasharray="6 4"/></g></g></svg>