<?xml version="1.0" encoding="UTF-8"?>
<svg width="275px" height="154px" viewBox="0 0 275 154" version="1.1" xmlns="http://www.w3.org/2000/svg" xmlns:xlink="http://www.w3.org/1999/xlink">
    <title>Group</title>
    <g id="Consumer---Meet" stroke="none" stroke-width="1" fill="none" fill-rule="evenodd">
        <g id="Meet-(Consumer-View)-0" transform="translate(-52.000000, -352.000000)">
            <g id="Group" transform="translate(52.817396, 352.871640)">
                <rect id="Rectangle-Copy" fill="#E2F3EB" x="164.730416" y="89.4171311" width="97.1316438" height="37.4852703"></rect>
                <rect id="Rectangle" fill="#EDECFE" x="18.7652082" y="0" width="164.8" height="63.6"></rect>
                <path d="M271.917433,101.312246 C272.71028,101.312246 273.352607,100.669919 273.352607,99.8770718 L273.352607,97.178673 C273.352607,96.3858256 272.71028,95.7434991 271.917433,95.7434991 L183.31086,95.7434991 C183.295704,95.7434991 183.28316,95.7518613 183.268526,95.752384 C183.25337,95.7518613 183.240304,95.7434991 183.224625,95.7434991 L180.526226,95.7434991 C179.733378,95.7434991 179.091052,96.3863483 179.091052,97.178673 L179.091052,138.625723 C179.091052,139.41857 179.733901,140.060897 180.526226,140.060897 L183.225147,140.060897 C183.229328,140.060897 183.232464,140.058806 183.236645,140.058806 L200.364657,140.058283 L200.364657,144.164679 L200.364657,151.405356 C200.364657,152.612135 201.764814,153.280071 202.702956,152.519628 L217.991791,140.130408 C218.127156,140.088597 218.266178,140.058283 218.410427,140.058283 L271.917433,140.058283 C272.71028,140.058283 273.352607,139.415957 273.352607,138.623109 L273.352607,135.924711 C273.352607,135.131863 272.71028,134.489537 271.917433,134.489537 L216.583272,134.489537 C216.15941,134.489537 215.749136,134.634831 215.420917,134.901378 L212.851088,136.984105 L205.933404,142.590482 L205.933404,137.817196 L205.933404,135.924711 C205.933404,135.131863 205.290032,134.489537 204.49823,134.489537 L184.660321,134.489537 L184.659799,101.312768 L271.917433,101.312246 Z" id="Fill-648-Copy" fill="#5EBF8F" transform="translate(226.221829, 124.293029) scale(-1, 1) translate(-226.221829, -124.293029) "></path>
                <path d="M157.495405,18.3300147 C158.840602,18.3300147 159.930416,17.2402007 159.930416,15.8950032 L159.930416,11.3167206 C159.930416,9.97152309 158.840602,8.88170916 157.495405,8.88170916 L7.15960757,8.88170916 C7.13389186,8.88170916 7.11260989,8.89589713 7.08778094,8.89678388 C7.06206523,8.89589713 7.03989652,8.88170916 7.01329406,8.88170916 L2.43501144,8.88170916 C1.08981393,8.88170916 0,9.97240984 0,11.3167206 L0,81.6385386 C0,82.9837361 1.09070068,84.0735501 2.43501144,84.0735501 L7.01418081,84.0735501 C7.0212748,84.0735501 7.02659529,84.0700031 7.03368928,84.0700031 L36.0942118,84.0691163 L36.0942118,91.0362995 L36.0942118,103.321313 C36.0942118,105.368816 38.4698111,106.50208 40.0615247,105.211861 L66.0015792,84.1914876 C66.2312471,84.1205477 66.4671222,84.0691163 66.7118648,84.0691163 L157.495405,84.0691163 C158.840602,84.0691163 159.930416,82.9793024 159.930416,81.6341049 L159.930416,77.0558223 C159.930416,75.7106248 158.840602,74.6208108 157.495405,74.6208108 L63.611792,74.6208108 C62.8926389,74.6208108 62.1965413,74.8673269 61.6396633,75.3195687 L57.2795208,78.8532615 L45.5425173,88.3654129 L45.5425173,80.2667387 L45.5425173,77.0558223 C45.5425173,75.7106248 44.4509299,74.6208108 43.1075059,74.6208108 L9.44919225,74.6208108 L9.4483055,18.3309014 L157.495405,18.3300147 Z" id="Fill-648" fill="#615AF3"></path>
            </g>
        </g>
    </g>
</svg>