<svg height="34" viewBox="0 0 34 34" width="34" xmlns="http://www.w3.org/2000/svg"><g fill="none" fill-rule="evenodd" transform="translate(.5 .5)"><g fill-rule="nonzero"><path d="m32.34 16.875c0-1.17-.105-2.295-.3000001-3.375h-15.5399999v6.3825h8.8800001c-.3825001 2.0625-1.5450001 3.81-3.2925 4.9799999v4.1400002h5.3324998c3.1200001-2.8725001 4.9200001-7.1025002 4.9200001-12.1275001z" fill="#4285f4"/><path d="m16.5 33c4.455 0 8.1899999-1.4775 10.9199999-3.9974999l-5.3324999-4.1400002c-1.4775.99-3.3675 1.575-5.5875 1.575-4.2975 0-7.935-2.9025-9.2325-6.8024999h-5.5125v4.275c2.715 5.3925 8.295 9.09 14.745 9.09z" fill="#34a853"/><path d="m7.2675 19.635c-.33-.99-.5175-2.0475-.5175-3.135s.1875-2.145.5175-3.135v-4.275h-5.5125c-1.1175 2.2275-1.755 4.7475-1.755 7.41s.6375 5.1825 1.755 7.41z" fill="#fbbc05"/><path d="m16.5 6.56249999c2.4224999 0 4.5975001.8325 6.3074999 2.46750002l4.7325001-4.73250001c-2.8575-2.6625-6.5925-4.2975-11.04-4.2975-6.45 0-12.03 3.6975-14.745 9.09l5.5125 4.275c1.2975-3.9 4.935-6.80250001 9.2325-6.80250001z" fill="#ea4335"/></g><path d="m0 0h33v33h-33z"/></g></svg>