<svg height="34" viewBox="0 0 34 34" width="34" xmlns="http://www.w3.org/2000/svg"><path d="m66.3512628 75.5h-29.3571831c-1.0062196 0-1.8214084.8151888-1.8214084 1.8212849v29.3574301c0 1.005849.8151888 1.821285 1.8214084 1.821285h15.8048701v-12.7792869h-4.3004825v-4.9804042h4.3004825v-3.6728626c0-4.2624001 2.6032133-6.5833328 6.4056555-6.5833328 1.8212848 0 3.3866254.1356382 3.8429976.196224v4.4544201l-2.6373392.0012365c-2.0678322 0-2.4681934.9826035-2.4681934 2.4245468v3.179768h4.9316883l-.64221 4.9804042h-4.2894783v12.7792869h8.4091925c1.0058487 0 1.8212848-.815436 1.8212848-1.821285v-29.3574301c0-1.0060961-.8154361-1.8212849-1.8212848-1.8212849" fill="#385185" fill-rule="evenodd" transform="translate(-34.5 -74.983141)"/></svg>